<svg viewBox="0 0 100 100" fill="none" xmlns="http://www.w3.org/2000/svg">
  <!-- Monitor Frame -->
  <path
    d="M 45 22 H 24 A 4 4 0 0 0 20 26 V 56 A 4 4 0 0 0 24 60 H 48"
    stroke="#1F6F5F"
    stroke-width="4.5"
    stroke-linecap="round"
  />
  <!-- Monitor Stand -->
  <path
    d="M 28 60 L 26 68 H 40"
    stroke="#1F6F5F"
    stroke-width="4"
    stroke-linecap="round"
    stroke-linejoin="round"
  />

  <!-- W Left Leg -->
  <path
    d="M 27 38 L 40 58 L 52 38"
    stroke="#1F6F5F"
    stroke-width="6"
    stroke-linecap="round"
    stroke-linejoin="round"
  />

  <!-- Radar Waves -->
  <path
    d="M 46 32 A 8 8 0 0 1 58 32"
    stroke="#6FCF97"
    stroke-width="2.5"
    stroke-linecap="round"
  />
  <path
    d="M 42 27 A 14 14 0 0 1 62 27"
    stroke="#6FCF97"
    stroke-width="2.5"
    stroke-linecap="round"
  />

  <!-- W Right Leg & Stem -->
  <path
    d="M 40 58 C 48 58 55 48 58 34"
    stroke="#6FCF97"
    stroke-width="6.5"
    stroke-linecap="round"
  />

  <!-- Top Large Leaf -->
  <path
    d="M 58 34 C 62 25 72 20 78 18 C 76 28 72 35 58 34 Z"
    fill="#6FCF97"
  />

  <!-- Side Medium Leaf -->
  <path
    d="M 56 44 C 62 40 70 38 74 38 C 72 45 66 48 56 44 Z"
    fill="#6FCF97"
  />
</svg>